<svg width="116" height="55" viewBox="0 0 116 55" fill="none" xmlns="http://www.w3.org/2000/svg">
<mask id="mask0_111_118" style="mask-type:luminance" maskUnits="userSpaceOnUse" x="15" y="0" width="33" height="16">
<path d="M15.712 0H47.5729V15.2944H15.712V0Z" fill="white"/>
</mask>
<g mask="url(#mask0_111_118)">
<path d="M45.6011 0.214882C46.1925 0.118615 46.7838 0.00859516 47.3838 0C45.6544 0.266453 43.9457 0.687621 42.3143 1.31851C40.8084 1.89955 39.3867 2.69376 38.1026 3.67018C36.9079 4.56409 35.8369 5.60755 34.7023 6.57194C33.4233 7.6326 32.0258 8.54198 30.5817 9.36025C27.4857 11.0965 24.1748 12.4253 20.8055 13.5324C19.3529 14.0017 17.8865 14.4383 16.4064 14.8131C16.1881 14.8612 15.9732 14.9369 15.7498 14.9506C16.5938 14.746 17.4224 14.4813 18.2561 14.2355C21.7871 13.149 25.2613 11.8426 28.5412 10.1355C30.8568 8.92533 33.0761 7.50539 35.0221 5.75539C35.4862 5.35485 35.9039 4.90446 36.3732 4.50908C38.9742 2.25712 42.2283 0.825146 45.6011 0.214882Z" fill="black"/>
</g>
<path d="M53.7924 0.489943C57.5365 0.244119 61.2961 0.534639 65.0041 1.05723C65.9736 1.13287 66.8796 1.50418 67.7924 1.80846C70.6546 2.78832 73.4842 3.86616 76.2295 5.13998C73.8847 4.93026 71.5313 4.8615 69.178 4.85462C66.3673 4.84259 63.5566 4.9251 60.7477 5.06263C60.0807 5.10044 59.4034 5.12107 58.7433 4.99902C58.2173 4.90275 57.6998 4.70162 57.289 4.35438C56.1716 3.35389 55.1109 2.28292 53.9042 1.38729C53.6944 1.22398 53.4349 1.11052 53.2853 0.883607C53.2269 0.806249 53.2165 0.682478 53.3059 0.62403C53.4452 0.522606 53.6257 0.508853 53.7924 0.489943Z" fill="black"/>
<path d="M47.7964 1.16896C48.7522 1.07097 49.732 1.11739 50.6569 1.39071C51.8877 1.7414 52.9982 2.44965 53.9024 3.34872C54.6623 4.09651 55.2777 4.97838 55.7934 5.90839C52.094 6.05794 48.3929 6.19547 44.6935 6.34675C44.1846 5.24139 43.528 4.18933 42.6616 3.32637C42.5189 3.17681 42.3229 3.0582 42.2593 2.85019C42.2473 2.68688 42.4278 2.6164 42.5498 2.55623C43.1756 2.29322 43.8185 2.0749 44.4666 1.87549C45.553 1.54543 46.6652 1.2807 47.7964 1.16896Z" fill="black"/>
<path d="M40.5557 3.47936C40.7998 3.35903 41.037 3.19056 41.3172 3.17853C41.5338 3.20088 41.6989 3.36075 41.8605 3.48968C42.3366 3.91772 42.7045 4.44547 43.0552 4.97666C43.2512 5.27921 43.4368 5.58692 43.6087 5.90323C43.6672 6.0184 43.7342 6.15937 43.6758 6.28658C43.5898 6.41894 43.4128 6.40347 43.2752 6.40691C42.261 6.39488 41.2468 6.41207 40.2325 6.44129C39.2612 6.48427 38.2883 6.53756 37.329 6.69399C36.9801 6.75416 36.6259 6.81948 36.2993 6.96732C37.0402 5.70554 38.1937 4.73599 39.4624 4.0329C39.8182 3.83005 40.1895 3.65986 40.5557 3.47936Z" fill="black"/>
<path d="M64.093 5.69177C66.3088 5.63676 68.5264 5.58003 70.7423 5.47688C73.1317 5.39609 75.5281 5.43047 77.9107 5.65051C79.9719 5.83101 82.0296 6.05105 84.0804 6.32094C85.1617 6.46534 86.243 6.62177 87.3122 6.83666C88.8989 7.14437 90.5028 7.45895 91.9898 8.11047C92.4367 8.30817 92.8733 8.53336 93.2876 8.79294C92.4436 8.46804 91.5789 8.18955 90.6884 8.02108C90.3102 7.94373 89.9269 7.90591 89.5487 7.83027C89.1189 7.79417 88.6875 7.83371 88.2577 7.82855C86.9203 7.83886 85.5811 7.88184 84.254 8.06234C84.0821 8.08985 83.881 8.12079 83.7727 8.2755C83.6781 8.42678 83.7503 8.61244 83.8191 8.75856C84.2781 9.56823 84.6907 10.4037 85.117 11.2323C85.4092 11.815 85.7135 12.3926 85.9971 12.9788C84.8351 11.1309 83.2346 9.56479 81.3798 8.41647C81.0617 8.22049 80.7385 8.03655 80.4016 7.87668C79.9426 7.66696 79.4475 7.55178 78.9507 7.4727C77.9967 7.34893 77.0546 7.14608 76.1057 6.98965C71.5794 6.20576 66.9896 5.74506 62.3945 5.73818C62.9601 5.69864 63.5257 5.70724 64.093 5.69177Z" fill="black"/>
<path d="M75.3923 8.19989C76.1092 8.35117 76.8312 8.61074 77.383 9.11099C77.701 9.39463 77.9365 9.77282 78.038 10.1888C78.1067 10.4604 78.0706 10.7664 77.9022 10.9968C77.6976 11.2787 77.371 11.442 77.0478 11.5469C77.3452 11.3217 77.6495 11.0656 77.7749 10.7011C77.8936 10.3607 77.7818 9.98599 77.5738 9.70406C77.2472 9.26055 76.7848 8.93908 76.3172 8.6606C76.0181 8.48697 75.7086 8.33398 75.3923 8.19989Z" fill="black"/>
<path d="M89.1774 8.19815C89.3768 8.17409 89.578 8.16377 89.7791 8.1844C90.7246 8.37522 91.6821 8.54024 92.6018 8.8428C92.8699 8.93047 93.1398 9.03877 93.3582 9.22271C93.6521 9.45306 93.8395 9.78828 93.9598 10.1355C94.173 10.7595 94.3947 11.3818 94.5477 12.0213C94.6096 12.2964 94.6818 12.6006 94.5391 12.8619C94.4566 13.0304 94.2624 13.1129 94.0819 13.1009C92.2734 12.9651 90.4615 12.8929 88.6497 12.8637C88.1855 12.8448 87.7059 12.9084 87.259 12.7536C86.7553 12.5817 86.3908 12.1657 86.0934 11.7428C85.6087 11.0397 85.1772 10.3006 84.7749 9.54761C84.6494 9.29319 84.5343 9.00095 84.6065 8.71387C84.6632 8.50414 84.8884 8.41132 85.0878 8.39756C86.4458 8.26348 87.8142 8.2652 89.1774 8.19815Z" fill="black"/>
<path d="M74.2715 8.24457C74.978 8.18784 75.6485 8.50931 76.2398 8.86171C76.618 9.09207 76.9859 9.36196 77.242 9.72984C77.45 10.0272 77.5566 10.4054 77.4896 10.7681C77.3916 11.093 77.0942 11.3182 76.7779 11.4111C76.3739 11.5314 75.9424 11.5142 75.5333 11.4369C74.5638 11.2478 73.7266 10.5464 73.3346 9.64732C73.2126 9.37743 73.1937 9.03878 73.3896 8.79811C73.6114 8.52822 73.9088 8.27724 74.2715 8.24457Z" fill="black"/>
<path d="M78.8906 8.26349C79.5902 8.14488 80.2933 8.41993 80.8623 8.81187C81.225 9.06113 81.5482 9.36541 81.8456 9.68859C82.1189 9.96879 82.2943 10.335 82.3888 10.7114C82.4559 11.014 82.461 11.3647 82.2616 11.6208C82.0278 11.9182 81.6221 12.0127 81.2611 12.0059C80.2916 11.913 79.3719 11.3887 78.7994 10.6014C78.5914 10.3195 78.423 10.0066 78.2975 9.67999C78.1961 9.37916 78.1668 9.03879 78.294 8.74139C78.3989 8.49556 78.6293 8.31163 78.8906 8.26349Z" fill="black"/>
<path d="M80.5168 8.37006C81.1339 8.70355 81.7493 9.05596 82.2805 9.5201C82.547 9.76249 82.8031 10.0341 82.9441 10.371C83.0541 10.6237 83.0661 10.9263 82.9406 11.1738C82.8444 11.3767 82.6742 11.5314 82.5006 11.6672C82.6828 11.3371 82.7258 10.9366 82.6054 10.579C82.4215 10.0049 81.9986 9.54933 81.562 9.15223C81.2388 8.85827 80.8726 8.6176 80.5168 8.37006Z" fill="black"/>
<path d="M94.1403 9.68C94.1575 9.6714 94.1936 9.6525 94.2108 9.64218C94.3827 9.67828 94.5151 9.80893 94.6388 9.92583C94.9964 10.3057 95.2457 10.7733 95.4571 11.2461C95.5963 11.5778 95.7511 11.9079 95.8009 12.2672C95.8164 12.4219 95.8301 12.6041 95.7167 12.7262C95.6445 12.7726 95.5654 12.7141 95.5121 12.6677C95.048 12.2104 94.8159 11.5813 94.5219 11.0105C94.3672 10.6788 94.1988 10.3487 94.1128 9.99115C94.0973 9.88973 94.0664 9.76595 94.1403 9.68Z" fill="black"/>
<path d="M62.9017 10.8111C63.6856 10.6702 64.5141 10.677 65.2637 10.9693C65.922 11.2168 66.4911 11.6672 66.9294 12.2122C67.4761 12.8912 67.8405 13.7009 68.0829 14.5329C68.3442 15.4474 68.4697 16.4015 68.4559 17.3521C68.4078 18.1996 68.2943 19.0454 68.0709 19.8654C67.8594 20.6338 67.5431 21.3833 67.0583 22.0228C66.632 22.5866 66.0665 23.0508 65.4115 23.3224C64.6689 23.637 63.8386 23.7126 63.0444 23.6078C63.7354 23.5407 64.4213 23.3172 64.9817 22.8978C65.6178 22.4285 66.075 21.7563 66.3879 21.0395C66.7919 20.1078 66.9965 19.1004 67.1134 18.0965C67.2406 17.1166 67.2234 16.123 67.0996 15.1449C66.993 14.3386 66.797 13.5341 66.4206 12.807C66.0974 12.1829 65.6247 11.6242 65.0127 11.2701C64.3818 10.8919 63.6306 10.7647 62.9017 10.8111Z" fill="black"/>
<path d="M36.7136 12.9892C37.0763 13.6115 37.4666 14.2286 37.9788 14.7426C38.2762 15.0383 38.6218 15.291 39.0172 15.4423C39.4297 15.6056 39.8784 15.6468 40.3168 15.6778C45.6475 16.0009 50.98 16.3035 56.3108 16.6146C56.6357 16.6456 56.9624 16.6284 57.2821 16.6851C54.7568 16.6301 52.2315 16.6061 49.7045 16.5596C46.4607 16.5132 43.2168 16.4582 39.9729 16.4118C39.5535 16.3946 39.1255 16.4341 38.7129 16.3448C38.0923 16.2055 37.6075 15.6915 37.4167 15.0984C37.1846 14.3936 36.9337 13.6957 36.7136 12.9892Z" fill="black"/>
<path d="M40.5368 17.4003C40.7242 17.3779 40.9098 17.3332 41.1006 17.3349C44.6213 17.4725 48.1419 17.5997 51.6642 17.7045C52.938 17.7355 54.2136 17.7785 55.4891 17.7819C55.6318 17.7853 55.7745 17.7991 55.9172 17.818C55.41 17.8042 54.9064 17.861 54.401 17.8661C51.2001 17.9968 47.9975 18.0054 44.7949 17.9916C42.2713 17.9779 39.7495 17.9349 37.2259 17.8747C38.3278 17.708 39.4332 17.5601 40.5368 17.4003Z" fill="black"/>
<mask id="mask1_111_118" style="mask-type:luminance" maskUnits="userSpaceOnUse" x="70" y="17" width="28" height="5">
<path d="M70.0168 17.4948H97.5664V21.8956H70.0168V17.4948Z" fill="white"/>
</mask>
<g mask="url(#mask1_111_118)">
<path d="M70.1251 17.7888C70.1543 17.7114 70.2386 17.7252 70.3056 17.7252C72.1931 17.8145 74.0841 17.8953 75.9751 17.8524C76.2707 18.4351 76.7761 18.913 77.3933 19.1382C77.7921 19.2912 78.2236 19.3531 78.6516 19.3325C82.0657 19.5491 85.4849 19.7261 88.9075 19.678C90.1263 19.6333 91.3434 19.5594 92.5571 19.4477C93.5008 19.3548 94.4446 19.2431 95.3746 19.0471C95.7734 18.9577 96.1739 18.8615 96.5539 18.7016C96.7498 18.6156 96.9561 18.5176 97.0764 18.3303C97.2707 18.5812 97.3584 18.8924 97.4478 19.1932C97.5303 19.4769 97.4753 19.8001 97.2793 20.027C96.9974 20.357 96.5796 20.5255 96.1774 20.6613C95.3385 20.926 94.4618 21.0412 93.5902 21.1444C91.3296 21.3816 89.0553 21.4486 86.7828 21.526C82.0846 21.679 77.3795 21.5397 72.6968 21.1444C71.9422 21.0756 71.1875 21.0068 70.4346 20.9174C70.3761 20.9003 70.2798 20.9106 70.2695 20.8298C70.2712 19.8155 70.218 18.7978 70.1251 17.7888Z" fill="black"/>
</g>
<path d="M66.8297 22.8669C68.1035 21.7701 68.7568 20.0854 68.829 18.4317C68.9407 18.889 68.9373 19.3634 68.9665 19.8293C68.982 20.4499 69.0009 21.0739 68.9648 21.6945C68.9923 21.8217 69.1522 21.8561 69.2622 21.8818C69.8037 21.9644 70.3555 21.9558 70.9004 21.9987C70.7474 22.2549 70.5154 22.4526 70.3056 22.6606C69.9825 22.9717 69.6438 23.2691 69.2966 23.5545C68.8995 23.8777 68.3545 23.8553 67.8732 23.9155C66.8383 23.9894 65.7931 24.0668 64.7565 23.9722C65.5146 23.7505 66.2332 23.3843 66.8297 22.8669Z" fill="black"/>
<path d="M29.0569 19.2843C30.0179 19.3583 30.972 19.482 31.9312 19.5697C36.3612 20.0166 40.7946 20.443 45.2298 20.8298C48.1986 21.0842 51.1674 21.3266 54.1397 21.4985C54.8703 21.5277 55.5991 21.5827 56.328 21.5879C55.1505 21.6051 53.9712 21.5741 52.7936 21.5638C49.8094 21.5397 46.8251 21.5157 43.8391 21.5036C43.6259 21.4985 43.411 21.5105 43.1996 21.495C38.4842 20.761 33.7723 20.0132 29.0569 19.2843Z" fill="black"/>
<mask id="mask2_111_118" style="mask-type:luminance" maskUnits="userSpaceOnUse" x="82" y="21" width="11" height="4">
<path d="M82.339 21.8956H92.4608V24.4243H82.339V21.8956Z" fill="white"/>
</mask>
<g mask="url(#mask2_111_118)">
<path d="M89.3424 22.236C90.2656 22.2102 91.1887 22.1672 92.1101 22.0898C91.952 22.3786 91.6821 22.5832 91.4345 22.7912C90.2896 23.6834 88.8886 24.2851 87.4308 24.3693C86.5008 24.4226 85.5588 24.2387 84.7165 23.8416C83.9051 23.4634 83.1848 22.9064 82.5642 22.2617C84.823 22.291 87.0836 22.2944 89.3424 22.236Z" fill="black"/>
</g>
<path d="M4.05178 40.8983C3.3865 40.8983 2.73498 40.8226 2.09893 40.6714C1.46632 40.5201 0.916224 40.2966 0.448642 39.9975C0.218289 39.8514 0.0790453 39.6674 0.0291928 39.4474C-0.0223785 39.2274 -0.00518823 39.0211 0.0773263 38.8285C0.163279 38.6326 0.299084 38.4968 0.483023 38.4228C0.6704 38.3455 0.883562 38.3816 1.12251 38.5329C1.56259 38.7942 2.02501 38.985 2.51151 39.1036C3.00144 39.2239 3.51543 39.2824 4.05178 39.2824C4.8391 39.2824 5.41327 39.15 5.77083 38.8835C6.13183 38.6188 6.31405 38.2767 6.31405 37.859C6.31405 37.5117 6.18512 37.2384 5.92898 37.0407C5.67628 36.8396 5.24136 36.6746 4.6225 36.5456L2.97909 36.1949C1.1036 35.7961 0.166717 34.8369 0.166717 33.3138C0.166717 32.6537 0.340341 32.0812 0.689309 31.5948C1.03656 31.1048 1.52133 30.7249 2.14019 30.4533C2.75905 30.1834 3.47074 30.0476 4.27869 30.0476C4.87864 30.0476 5.44765 30.1232 5.98399 30.2745C6.52378 30.4224 7.00855 30.6424 7.43488 30.9346C7.636 31.0722 7.75462 31.2441 7.79244 31.4504C7.8337 31.6532 7.80791 31.8406 7.7168 32.0142C7.62913 32.1895 7.48645 32.3099 7.29047 32.3786C7.09794 32.444 6.87103 32.3993 6.60973 32.248C6.24185 32.0383 5.86882 31.8887 5.48891 31.801C5.11243 31.7099 4.70502 31.6635 4.26494 31.6635C3.57732 31.6635 3.03754 31.8079 2.64903 32.0967C2.25881 32.3855 2.06455 32.7672 2.06455 33.2382C2.06455 33.5957 2.18317 33.8828 2.42212 34.0977C2.65934 34.3143 3.0702 34.481 3.65296 34.5997L5.28262 34.9435C6.26764 35.1498 7.00167 35.4781 7.48301 35.9268C7.96778 36.3772 8.21189 36.9754 8.21189 37.7215C8.21189 38.3541 8.0417 38.9093 7.70305 39.3855C7.36268 39.8634 6.88134 40.2347 6.25904 40.4995C5.63503 40.7642 4.89927 40.8983 4.05178 40.8983Z" fill="black"/>
<path d="M13.0936 40.747C12.4146 40.747 12.0759 40.4083 12.0759 39.7293V31.2166C12.0759 30.5393 12.4146 30.1989 13.0936 30.1989H18.4295C18.9521 30.1989 19.2134 30.4499 19.2134 30.9484C19.2134 31.4675 18.9521 31.7254 18.4295 31.7254H13.9119V34.6272H18.0995C18.6221 34.6272 18.8834 34.8816 18.8834 35.3904C18.8834 35.8993 18.6221 36.1537 18.0995 36.1537H13.9119V39.2205H18.4295C18.9521 39.2205 19.2134 39.4749 19.2134 39.9837C19.2134 40.4926 18.9521 40.747 18.4295 40.747H13.0936Z" fill="black"/>
<path d="M26.7221 40.8639C26.0792 40.8639 25.7595 40.5373 25.7595 39.8806V31.801H22.8439C22.2938 31.801 22.0188 31.5311 22.0188 30.9896C22.0188 30.4636 22.2938 30.1989 22.8439 30.1989H30.5934C31.1435 30.1989 31.4186 30.4636 31.4186 30.9896C31.4186 31.5311 31.1435 31.801 30.5934 31.801H27.6779V39.8806C27.6779 40.5373 27.3582 40.8639 26.7221 40.8639Z" fill="black"/>
<path d="M35.6831 40.8639C35.0454 40.8639 34.7274 40.5373 34.7274 39.8806V31.0653C34.7274 30.4103 35.0454 30.082 35.6831 30.082C36.3192 30.082 36.6389 30.4103 36.6389 31.0653V39.8806C36.6389 40.5373 36.3192 40.8639 35.6831 40.8639Z" fill="black"/>
<path d="M41.2639 40.8639C40.9149 40.8639 40.6657 40.7453 40.5144 40.5063C40.3631 40.2691 40.3666 39.9803 40.5282 39.6399L44.482 30.8865C44.6092 30.5977 44.7656 30.3914 44.9496 30.2677C45.1318 30.1439 45.3449 30.082 45.5891 30.082C45.8177 30.082 46.024 30.1439 46.2079 30.2677C46.3901 30.3914 46.5466 30.5977 46.6755 30.8865L50.6431 39.6399C50.8029 39.9889 50.8115 40.2794 50.6706 40.5132C50.5331 40.747 50.2941 40.8639 49.9554 40.8639C49.6752 40.8639 49.4569 40.7969 49.3022 40.6645C49.1509 40.5321 49.0151 40.3258 48.8965 40.0456L48.147 38.306H42.9967L42.2678 40.0456C42.1338 40.3344 41.9962 40.5442 41.8553 40.6714C41.7177 40.7986 41.5201 40.8639 41.2639 40.8639ZM45.5547 32.2755L43.6568 36.7794H47.4869L45.5891 32.2755H45.5547Z" fill="black"/>
<path d="M60.8782 40.8639C60.5293 40.8639 60.28 40.7453 60.1287 40.5063C59.9774 40.2691 59.9809 39.9803 60.1425 39.6399L64.0963 30.8865C64.2235 30.5977 64.3799 30.3914 64.5639 30.2677C64.7461 30.1439 64.9593 30.082 65.2034 30.082C65.432 30.082 65.6383 30.1439 65.8222 30.2677C66.0045 30.3914 66.1609 30.5977 66.2898 30.8865L70.2574 39.6399C70.4173 39.9889 70.4259 40.2794 70.2849 40.5132C70.1474 40.747 69.9084 40.8639 69.5698 40.8639C69.2896 40.8639 69.0712 40.7969 68.9165 40.6645C68.7653 40.5321 68.6294 40.3258 68.5108 40.0456L67.7613 38.306H62.611L61.8822 40.0456C61.7481 40.3344 61.6106 40.5442 61.4696 40.6714C61.3321 40.7986 61.1344 40.8639 60.8782 40.8639ZM65.169 32.2755L63.2712 36.7794H67.1012L65.2034 32.2755H65.169Z" fill="black"/>
<path d="M75.1382 40.747C74.4591 40.747 74.1205 40.4083 74.1205 39.7293V31.2166C74.1205 30.5393 74.4591 30.1989 75.1382 30.1989H78.7275C79.8312 30.1989 80.689 30.443 81.2993 30.9278C81.9078 31.4091 82.2138 32.0795 82.2138 32.9356C82.2138 33.5046 82.0694 33.9946 81.7806 34.4071C81.4918 34.8163 81.093 35.1137 80.5841 35.301C81.1789 35.4712 81.6448 35.7686 81.98 36.1949C82.3135 36.6178 82.482 37.1507 82.482 37.7971C82.482 38.7374 82.1657 39.4646 81.533 39.9769C80.9004 40.4909 80.0203 40.747 78.8926 40.747H75.1382ZM75.9564 34.6753H78.3975C79.704 34.6753 80.3572 34.1716 80.3572 33.1625C80.3572 32.1552 79.704 31.6498 78.3975 31.6498H75.9564V34.6753ZM75.9564 39.2961H78.6519C79.967 39.2961 80.6254 38.7666 80.6254 37.7077C80.6254 36.6539 79.967 36.1262 78.6519 36.1262H75.9564V39.2961Z" fill="black"/>
<path d="M86.7313 40.8639C86.3823 40.8639 86.133 40.7453 85.9818 40.5063C85.8305 40.2691 85.8339 39.9803 85.9955 39.6399L89.9493 30.8865C90.0765 30.5977 90.233 30.3914 90.4169 30.2677C90.5991 30.1439 90.8123 30.082 91.0564 30.082C91.285 30.082 91.4913 30.1439 91.6753 30.2677C91.8575 30.3914 92.0139 30.5977 92.1428 30.8865L96.1104 39.6399C96.2703 39.9889 96.2789 40.2794 96.1379 40.5132C96.0004 40.747 95.7614 40.8639 95.4228 40.8639C95.1426 40.8639 94.9243 40.7969 94.7696 40.6645C94.6183 40.5321 94.4825 40.3258 94.3639 40.0456L93.6144 38.306H88.4641L87.7352 40.0456C87.6011 40.3344 87.4636 40.5442 87.3226 40.6714C87.1851 40.7986 86.9874 40.8639 86.7313 40.8639ZM91.022 32.2755L89.1242 36.7794H92.9542L91.0564 32.2755H91.022Z" fill="black"/>
<path d="M100.991 40.747C100.312 40.747 99.9735 40.4083 99.9735 39.7293V31.2166C99.9735 30.5393 100.312 30.1989 100.991 30.1989H103.893C105.657 30.1989 107.022 30.6527 107.984 31.5604C108.947 32.468 109.428 33.7711 109.428 35.4661C109.428 37.1542 108.947 38.4555 107.984 39.3718C107.022 40.2897 105.657 40.747 103.893 40.747H100.991ZM101.885 39.1586H103.769C106.203 39.1586 107.42 37.9277 107.42 35.4661C107.42 33.0147 106.203 31.7873 103.769 31.7873H101.885V39.1586Z" fill="black"/>
<path d="M114.544 40.8639C113.906 40.8639 113.588 40.5373 113.588 39.8806V31.0653C113.588 30.4103 113.906 30.082 114.544 30.082C115.18 30.082 115.5 30.4103 115.5 31.0653V39.8806C115.5 40.5373 115.18 40.8639 114.544 40.8639Z" fill="black"/>
<path d="M38.1181 52.8271V52.4902H40.0572V52.8271H38.1181Z" fill="black"/>
<path d="M41.6882 52.3183V54.9175H41.2756V48.9489H42.699C43.4365 48.9489 43.9814 49.0864 44.3355 49.3615C44.688 49.6331 44.865 50.0422 44.865 50.5923C44.865 50.9911 44.7584 51.3281 44.5487 51.6031C44.3373 51.8782 44.0192 52.0776 43.5929 52.2014L45.2088 54.9175H44.7137L43.1735 52.3183H41.6882ZM41.6882 51.9607H42.8297C43.3333 51.9607 43.7236 51.849 43.9986 51.6238C44.2771 51.4003 44.4181 51.0668 44.4181 50.6267C44.4181 50.1729 44.2805 49.8428 44.0055 49.6365C43.7339 49.4302 43.2921 49.3271 42.6784 49.3271H41.6882V51.9607Z" fill="black"/>
<path d="M47.9349 55C47.2886 55 46.7831 54.8006 46.4221 54.4018C46.0646 54.003 45.8858 53.446 45.8858 52.7309C45.8858 52.026 46.0594 51.4588 46.4084 51.0324C46.7556 50.6061 47.2267 50.3929 47.818 50.3929C48.3406 50.3929 48.7497 50.5769 49.0489 50.943C49.3514 51.3058 49.5027 51.8008 49.5027 52.4283V52.7515H46.3053C46.3138 53.3617 46.4565 53.8276 46.7316 54.1474C47.0101 54.4688 47.4123 54.6287 47.9349 54.6287C48.1859 54.6287 48.4094 54.6132 48.6019 54.5806C48.7944 54.5445 49.0368 54.4671 49.3308 54.3468V54.7181C49.0781 54.8281 48.846 54.902 48.6363 54.9381C48.4248 54.9794 48.1911 55 47.9349 55ZM47.818 50.7505C47.3865 50.7505 47.041 50.8932 46.7797 51.1768C46.5219 51.457 46.374 51.8627 46.3328 52.3939H49.0764C49.0764 51.8816 48.9629 51.4794 48.7394 51.1906C48.5194 50.8983 48.2117 50.7505 47.818 50.7505Z" fill="black"/>
<path d="M53.8226 54.9175V52.0364C53.8226 51.5928 53.728 51.2697 53.5406 51.0668C53.3515 50.8657 53.061 50.7643 52.6674 50.7643C52.1345 50.7643 51.746 50.9001 51.4984 51.17C51.2543 51.4364 51.134 51.8696 51.134 52.4696V54.9175H50.7283V50.4823H51.0721L51.1477 51.0874H51.1752C51.464 50.625 51.9763 50.3929 52.7155 50.3929C53.7194 50.3929 54.2214 50.9344 54.2214 52.0157V54.9175H53.8226Z" fill="black"/>
<path d="M56.8282 54.6424C57.0843 54.6424 57.3095 54.6201 57.502 54.5737V54.9037C57.3043 54.9673 57.0774 55 56.8213 55C56.4311 55 56.1423 54.8951 55.9549 54.6837C55.7658 54.4739 55.673 54.1439 55.673 53.6935V50.833H55.0197V50.5923L55.673 50.4067L55.8792 49.4027H56.0855V50.4823H57.392V50.833H56.0855V53.6385C56.0855 53.9789 56.144 54.2298 56.2643 54.3949C56.3881 54.5599 56.5755 54.6424 56.8282 54.6424Z" fill="black"/>
<path d="M63.2784 49.2377C62.5306 49.2377 61.9409 49.4784 61.5112 49.9597C61.0848 50.4376 60.8717 51.0926 60.8717 51.9263C60.8717 52.779 61.0728 53.4425 61.4768 53.9135C61.879 54.3811 62.4601 54.6149 63.2165 54.6149C63.715 54.6149 64.1757 54.5513 64.5986 54.4224V54.7937C64.2032 54.9312 63.7116 55 63.1202 55C62.2813 55 61.6212 54.7301 61.1398 54.1886C60.6585 53.6488 60.4178 52.8924 60.4178 51.9194C60.4178 51.3109 60.5313 50.7746 60.7617 50.3104C60.9903 49.848 61.3203 49.4904 61.7518 49.2377C62.1816 48.9867 62.6836 48.8595 63.2577 48.8595C63.8388 48.8595 64.3596 48.9695 64.8186 49.1896L64.6536 49.5678C64.217 49.3477 63.7597 49.2377 63.2784 49.2377Z" fill="black"/>
<path d="M68.5187 54.9175L68.4155 54.2161H68.3811C68.1611 54.5015 67.9307 54.7026 67.6935 54.8212C67.4597 54.9398 67.1812 55 66.8615 55C66.4248 55 66.0862 54.8883 65.8438 54.6631C65.5997 54.4396 65.4794 54.1302 65.4794 53.7348C65.4794 53.305 65.6599 52.9698 66.0226 52.7308C66.3836 52.4885 66.9062 52.363 67.5904 52.3527L68.4293 52.3252V52.0295C68.4293 51.6083 68.3433 51.2903 68.1748 51.0737C68.0047 50.8588 67.7296 50.7505 67.3497 50.7505C66.9371 50.7505 66.5108 50.8657 66.0707 51.0943L65.9194 50.7436C66.4042 50.515 66.8856 50.3998 67.3635 50.3998C67.8482 50.3998 68.2109 50.5287 68.4499 50.7849C68.6923 51.0376 68.8143 51.4312 68.8143 51.9676V54.9175H68.5187ZM66.8821 54.6287C67.3583 54.6287 67.7313 54.4946 68.0029 54.223C68.278 53.9531 68.4155 53.5766 68.4155 53.0953V52.6621L67.6385 52.6896C67.0145 52.7223 66.5692 52.8202 66.3045 52.9853C66.0432 53.1503 65.9126 53.4082 65.9126 53.7554C65.9126 54.0305 65.9968 54.2471 66.167 54.4018C66.3355 54.553 66.5744 54.6287 66.8821 54.6287Z" fill="black"/>
<path d="M71.9986 50.3929C72.186 50.3929 72.3871 50.4119 72.6037 50.448L72.5281 50.8399C72.339 50.7952 72.1465 50.7711 71.9505 50.7711C71.574 50.7711 71.2646 50.9327 71.0222 51.2525C70.7781 51.5739 70.6578 51.9796 70.6578 52.4696V54.9175H70.2521V50.4823H70.5959L70.6371 51.28H70.6646C70.8469 50.9551 71.0428 50.7264 71.2491 50.5924C71.4554 50.46 71.7047 50.3929 71.9986 50.3929Z" fill="black"/>
<path d="M73.1409 52.8271V52.4902H75.08V52.8271H73.1409Z" fill="black"/>
</svg>
